<svg xmlns="http://www.w3.org/2000/svg" width="44.527" height="44.527" viewBox="0 0 44.527 44.527">
  <g id="Group_36" data-name="Group 36" transform="translate(-3298 -4397)">
    <g id="Group_35" data-name="Group 35" transform="translate(3298 4397)">
      <g id="Group_31" data-name="Group 31">
        <g id="picture-svgrepo-com">
          <g id="Group_30" data-name="Group 30">
            <path id="Path_8" data-name="Path 8" d="M0,39.833a4.7,4.7,0,0,0,4.695,4.695H39.833a4.7,4.7,0,0,0,4.695-4.695V4.695A4.7,4.7,0,0,0,39.833,0H4.695A4.7,4.7,0,0,0,0,4.695ZM39.833,42.3H4.695a2.473,2.473,0,0,1-2.466-2.466V33.964l8.443-8.443,7.215,7.215a1.109,1.109,0,0,0,1.574,0L32.49,19.707,42.3,29.515V39.833A2.473,2.473,0,0,1,39.833,42.3ZM4.695,2.229H39.833A2.473,2.473,0,0,1,42.3,4.695V26.358l-9.026-9.016a1.109,1.109,0,0,0-1.574,0L18.67,30.37l-7.215-7.215a1.109,1.109,0,0,0-1.574,0L2.229,30.807V4.695A2.473,2.473,0,0,1,4.695,2.229Z" fill="#0278bd"/>
            <path id="Path_9" data-name="Path 9" d="M95.068,82.837A5.668,5.668,0,1,0,89.4,77.168,5.675,5.675,0,0,0,95.068,82.837Zm0-9.107a3.439,3.439,0,1,1-3.439,3.439A3.442,3.442,0,0,1,95.068,73.729Z" transform="translate(-81.266 -64.995)" fill="#ce094f"/>
          </g>
          <path id="Path_10" data-name="Path 10" d="M13.051,132.481l8.375-8.375,8.018,7.662,13.812-13.812,9.932,10.072v10.521a2.588,2.588,0,0,1-2.081,2.292c-1.872.25-36.152,0-36.152,0s-1.867-.686-1.905-2.27S13.051,132.481,13.051,132.481Z" transform="translate(-10.884 -98.5)" fill="#a5d6f2"/>
        </g>
      </g>
    </g>
    <path id="Path_11" data-name="Path 11" d="M3310.991,4439.547l7.9-7.9a3.616,3.616,0,0,1,.7-.185c.185,0,.627.443.627.443l7.2,7.162,13.253-13.18a1.245,1.245,0,0,1,.886-.147c.369.147,9.488,9.414,9.488,9.414v-22.445a2.606,2.606,0,0,0-2.289-1.772h-35.587a2.1,2.1,0,0,0-2.215,2.068C3310.659,4415.256,3310.991,4439.547,3310.991,4439.547Z" transform="translate(-10.716 -11.634)" fill="#fff"/>
    <path id="Path_12" data-name="Path 12" d="M3383.048,4461.351s4.583-3.458,9.917-3.35a10.821,10.821,0,0,1,7.628,3.35" transform="translate(-73 -49.937)" fill="none" stroke="#707070" stroke-linecap="round" stroke-width="1"/>
    <path id="Path_13" data-name="Path 13" d="M3383.048,4461.818s5.223-3.94,11.3-3.817a12.33,12.33,0,0,1,8.693,3.817" transform="translate(-74.224 -53.645)" fill="none" stroke="#707070" stroke-linecap="round" stroke-width="1"/>
  </g>
</svg>
