<svg id="Component_1_6" data-name="Component 1 – 6" xmlns="http://www.w3.org/2000/svg" width="231.897" height="111.125" viewBox="0 0 231.897 111.125">
  <g id="Group_32" data-name="Group 32" transform="translate(65.86 8.397)">
    <g id="Group_31" data-name="Group 31" transform="translate(0)">
      <g id="picture-svgrepo-com">
        <g id="Group_30" data-name="Group 30">
          <path id="Path_8" data-name="Path 8" d="M0,86.261A10.179,10.179,0,0,0,10.167,96.428H86.261A10.179,10.179,0,0,0,96.428,86.261V10.167A10.179,10.179,0,0,0,86.261,0H10.167A10.179,10.179,0,0,0,0,10.167ZM86.261,91.6H10.167a5.357,5.357,0,0,1-5.34-5.34V73.552L23.112,55.268,38.737,70.892a2.4,2.4,0,0,0,3.409,0L70.36,42.677,91.6,63.917V86.261A5.357,5.357,0,0,1,86.261,91.6ZM10.167,4.827H86.261a5.357,5.357,0,0,1,5.34,5.34V57.08L72.055,37.554a2.4,2.4,0,0,0-3.409,0L40.431,65.769,24.806,50.145a2.4,2.4,0,0,0-3.409,0L4.827,66.715V10.167A5.357,5.357,0,0,1,10.167,4.827Z" fill="#0278bd"/>
          <path id="Path_9" data-name="Path 9" d="M101.675,96.05A12.275,12.275,0,1,0,89.4,83.775,12.29,12.29,0,0,0,101.675,96.05Zm0-19.723a7.448,7.448,0,1,1-7.448,7.448A7.454,7.454,0,0,1,101.675,76.327Z" transform="translate(-71.785 -57.412)" fill="#ce094f"/>
        </g>
        <path id="Path_10" data-name="Path 10" d="M13.071,149.411l18.137-18.137,17.365,16.593,29.912-29.912,21.509,21.811v22.785s-.453,4.423-4.506,4.964-78.29,0-78.29,0-4.043-1.486-4.126-4.916S13.071,149.411,13.071,149.411Z" transform="translate(-8.378 -75.823)" fill="#a5d6f2"/>
      </g>
    </g>
  </g>
  <g id="Group_34" data-name="Group 34" transform="translate(135.602 0) rotate(3)">
    <g id="Group_33" data-name="Group 33" transform="translate(0 0)">
      <g id="Group_31-2" data-name="Group 31" transform="translate(0 0)">
        <g id="picture-svgrepo-com-2" data-name="picture-svgrepo-com" transform="translate(0 0)">
          <g id="Group_30-2" data-name="Group 30" transform="translate(0)">
            <path id="Path_8-2" data-name="Path 8" d="M0,86.261A10.179,10.179,0,0,0,10.167,96.428H86.261A10.179,10.179,0,0,0,96.428,86.261V10.167A10.179,10.179,0,0,0,86.261,0H10.167A10.179,10.179,0,0,0,0,10.167ZM86.261,91.6H10.167a5.357,5.357,0,0,1-5.34-5.34V73.552l33.909-2.66a2.4,2.4,0,0,0,3.409,0L91.6,63.917V86.261A5.357,5.357,0,0,1,86.261,91.6ZM10.167,4.827H86.261a5.357,5.357,0,0,1,5.34,5.34V57.08C71.109,36.609,69.592,36.609,40.431,65.769c-16.57-16.57-18.088-16.57-35.6.946V10.167A5.357,5.357,0,0,1,10.167,4.827Z" fill="#0278bd"/>
          </g>
          <rect id="Rectangle_33" data-name="Rectangle 33" width="87.155" height="87.155" rx="5" transform="translate(4.644 4.644)" fill="#fff"/>
        </g>
      </g>
    </g>
    <path id="Polygon_2" data-name="Polygon 2" d="M14.645,0,29.29,25.361H0Z" transform="translate(63.402 31.969) rotate(90)" fill="#ce094f"/>
  </g>
  <g id="Group_36" data-name="Group 36" transform="translate(0 40.325) rotate(-16)">
    <g id="Group_35" data-name="Group 35" transform="translate(0 0)">
      <g id="Group_31-3" data-name="Group 31" transform="translate(0)">
        <g id="picture-svgrepo-com-3" data-name="picture-svgrepo-com">
          <g id="Group_30-3" data-name="Group 30">
            <path id="Path_8-3" data-name="Path 8" d="M0,65.887a7.775,7.775,0,0,0,7.766,7.766H65.887a7.775,7.775,0,0,0,7.766-7.766V7.766A7.775,7.775,0,0,0,65.887,0H7.766A7.775,7.775,0,0,0,0,7.766Zm65.887,4.078H7.766a4.091,4.091,0,0,1-4.078-4.078V56.18L17.653,42.214,29.588,54.148a1.835,1.835,0,0,0,2.6,0L53.742,32.6,69.966,48.821V65.887A4.091,4.091,0,0,1,65.887,69.966ZM7.766,3.687H65.887a4.091,4.091,0,0,1,4.078,4.078V43.6L55.036,28.685a1.835,1.835,0,0,0-2.6,0L30.882,50.236,18.947,38.3a1.835,1.835,0,0,0-2.6,0L3.687,50.958V7.766A4.091,4.091,0,0,1,7.766,3.687Z" fill="#0278bd"/>
            <path id="Path_9-2" data-name="Path 9" d="M9.376,18.752A9.376,9.376,0,1,0,0,9.376,9.387,9.387,0,0,0,9.376,18.752Zm0-15.065A5.689,5.689,0,1,1,3.687,9.376,5.694,5.694,0,0,1,9.376,3.687Z" transform="translate(13.454 10.76)" fill="#ce094f"/>
          </g>
          <path id="Path_10-2" data-name="Path 10" d="M.028,24.026,13.881,10.173,27.145,22.847,49.991,0,66.42,16.66v17.4s-.346,3.378-3.442,3.791-59.8,0-59.8,0S.092,36.719.028,34.1.028,24.026.028,24.026Z" transform="translate(3.556 32.182)" fill="#a5d6f2"/>
        </g>
      </g>
    </g>
    <path id="Path_11" data-name="Path 11" d="M.263,47.33,13.331,34.263a5.976,5.976,0,0,1,1.16-.305c.305,0,1.038.733,1.038.733L27.437,46.537l21.922-21.8a2.057,2.057,0,0,1,1.465-.244c.611.244,15.693,15.571,15.693,15.571V2.937S65.54.006,62.731.006H3.866S.691-.3.2,3.426.263,47.33.263,47.33Z" transform="translate(3.501 3.801)" fill="#fff"/>
    <path id="Path_12" data-name="Path 12" d="M0,5.545S7.582-.175,16.4,0a17.9,17.9,0,0,1,12.618,5.54" transform="translate(19.93 16.642)" fill="none" stroke="#707070" stroke-linecap="round" stroke-width="2"/>
    <path id="Path_13" data-name="Path 13" d="M0,6.318S8.64-.2,18.692,0A20.4,20.4,0,0,1,33.071,6.318" transform="translate(17.904 12.163)" fill="none" stroke="#707070" stroke-linecap="round" stroke-width="2"/>
  </g>
</svg>
