<svg xmlns="http://www.w3.org/2000/svg" width="18.923" height="15.651" viewBox="0 0 18.923 15.651">
  <path id="Folder-Icon-SVG-pmsnhdjei" d="M.923,15.651a.6.6,0,0,1-.551-.842l2.981-6.73a2.882,2.882,0,0,1,2.377-1.65H17.848c.913,0,1.324.74.92,1.65L15.76,14.871a1.3,1.3,0,0,1-1.2.78ZM0,11.626V1.449A1.45,1.45,0,0,1,1.449,0H5.263A1.869,1.869,0,0,1,6.738.727L8.185,2.615a1.85,1.85,0,0,0,1.474.727h4.308a1.45,1.45,0,0,1,1.449,1.449v.156a.407.407,0,0,1-.406.409H5.035A2.886,2.886,0,0,0,2.655,7l-2.1,4.741a.282.282,0,0,1-.263.174.289.289,0,0,1-.3-.291Z" transform="translate(0)" fill="#0278bd"/>
</svg>
