<?xml version="1.0" standalone="no"?>
<!DOCTYPE svg PUBLIC "-//W3C//DTD SVG 20010904//EN"
 "http://www.w3.org/TR/2001/REC-SVG-20010904/DTD/svg10.dtd">
<svg version="1.0" xmlns="http://www.w3.org/2000/svg"
 width="25.000000pt" height="30pt" viewBox="0 0 37.000000 20.000000"
 preserveAspectRatio="xMidYMid meet">
<metadata>
Created by potrace 1.10, written by Peter Selinger 2001-2011
</metadata>
<g transform="translate(0.000000,20.000000) scale(0.100000,-0.100000)"
fill="#000000" stroke="none">
<path d="M42 165 c-35 -29 -41 -49 -30 -92 12 -47 75 -74 121 -51 11 5 17 5
17 -2 0 -13 36 -13 61 0 13 7 19 7 19 0 0 -5 7 -10 15 -10 11 0 15 12 16 48
l0 47 17 -45 c14 -36 23 -46 45 -48 l27 -3 0 89 c0 72 -3 89 -15 89 -12 0 -15
-15 -15 -71 -1 -55 -3 -67 -11 -53 -6 11 -12 24 -13 30 -1 7 -4 17 -7 22 -4 6
-9 22 -13 38 -4 18 -13 27 -26 27 -20 0 -27 -14 -11 -24 15 -10 19 -43 5 -43
-7 0 -11 4 -8 8 7 11 -17 57 -32 63 -8 3 -24 2 -37 -3 -12 -5 -31 -5 -42 0
-34 13 -52 10 -83 -16z m108 -28 c0 -20 -4 -23 -30 -19 -25 4 -30 1 -30 -17 0
-16 6 -21 28 -21 l27 -1 -22 -18 c-26 -22 -59 -17 -74 10 -22 41 12 86 56 75
13 -3 27 -2 30 4 10 16 15 12 15 -13z m76 -38 c-2 -31 -28 -65 -43 -56 -4 3
-6 30 -5 61 4 55 4 55 27 40 17 -11 22 -23 21 -45z"/>
</g>
</svg>
