<?xml version="1.0" encoding="UTF-8"?>
<svg version="1.1" xmlns="http://www.w3.org/2000/svg" width="24" height="24">
<path d="M0 0 C1.98 0 3.96 0 6 0 C6.33 0.99 6.66 1.98 7 3 C10.00847418 4.22520264 10.00847418 4.22520264 13 5 C13 6.65 13 8.3 13 10 C12.34 10 11.68 10 11 10 C11 10.66 11 11.32 11 12 C11.66 12 12.32 12 13 12 C13 13.65 13 15.3 13 17 C12.030625 17.268125 11.06125 17.53625 10.0625 17.8125 C9.051875 18.204375 8.04125 18.59625 7 19 C6.67 19.99 6.34 20.98 6 22 C4.02 22 2.04 22 0 22 C-0.33 21.01 -0.66 20.02 -1 19 C-4.00847418 17.77479736 -4.00847418 17.77479736 -7 17 C-7 15.35 -7 13.7 -7 12 C-6.34 12 -5.68 12 -5 12 C-5 11.34 -5 10.68 -5 10 C-5.66 10 -6.32 10 -7 10 C-7 8.35 -7 6.7 -7 5 C-5.5459375 4.5978125 -5.5459375 4.5978125 -4.0625 4.1875 C-3.051875 3.795625 -2.04125 3.40375 -1 3 C-0.67 2.01 -0.34 1.02 0 0 Z M1 8 C0.67 9.65 0.34 11.3 0 13 C2.475 13.495 2.475 13.495 5 14 C5.33 12.35 5.66 10.7 6 9 C4.35 8.67 2.7 8.34 1 8 Z " fill="#000000" transform="translate(9,1)"/>
</svg>
