<svg id="Group_30" data-name="Group 30" xmlns="http://www.w3.org/2000/svg" width="52.475" height="52.475" viewBox="0 0 52.475 52.475">
  <path id="Path_8" data-name="Path 8" d="M0,46.942a5.539,5.539,0,0,0,5.533,5.533h41.41a5.539,5.539,0,0,0,5.533-5.533V5.533A5.539,5.539,0,0,0,46.942,0H5.533A5.539,5.539,0,0,0,0,5.533Zm46.942,2.906H5.533a2.915,2.915,0,0,1-2.906-2.906V40.026l9.95-9.95,8.5,8.5a1.307,1.307,0,0,0,1.855,0L38.289,23.225,49.848,34.783V46.942A2.915,2.915,0,0,1,46.942,49.848ZM5.533,2.627h41.41a2.915,2.915,0,0,1,2.906,2.906v25.53L39.212,20.437a1.307,1.307,0,0,0-1.855,0L22,35.791l-8.5-8.5a1.307,1.307,0,0,0-1.855,0L2.627,36.306V5.533A2.915,2.915,0,0,1,5.533,2.627Z" fill="#575656"/>
  <path id="Path_9" data-name="Path 9" d="M96.08,84.86a6.68,6.68,0,1,0-6.68-6.68A6.688,6.688,0,0,0,96.08,84.86Zm0-10.733a4.053,4.053,0,1,1-4.053,4.053A4.057,4.057,0,0,1,96.08,74.127Z" transform="translate(-79.814 -63.834)" fill="#575656"/>
</svg>
