<?xml version="1.0" standalone="no"?>
<!DOCTYPE svg PUBLIC "-//W3C//DTD SVG 20010904//EN"
 "http://www.w3.org/TR/2001/REC-SVG-20010904/DTD/svg10.dtd">
<svg version="1.0" xmlns="http://www.w3.org/2000/svg"
 width="25.808pt" height="20.719pt" viewBox="0 0 225.000000 225.000000"
 preserveAspectRatio="xMidYMid meet">

<g transform="translate(0.000000,225.000000) scale(0.100000,-0.100000)"
fill="#000000" stroke="none">
<path d="M1015 2244 c-162 -18 -346 -80 -485 -166 -114 -69 -296 -252 -362
-363 -375 -631 -83 -1428 607 -1659 226 -76 515 -70 742 14 317 118 573 384
676 705 43 133 52 192 52 350 0 85 -6 176 -13 210 -98 454 -425 790 -864 886
-86 19 -276 31 -353 23z m360 -93 c478 -120 805 -537 805 -1026 0 -659 -591
-1154 -1243 -1040 -159 28 -312 94 -444 194 -196 147 -325 343 -396 601 -30
111 -30 381 1 493 115 420 428 714 841 792 106 20 329 13 436 -14z"/>
<path d="M425 1800 c-11 -4 -33 -22 -50 -40 l-30 -31 -3 -500 c-3 -551 -5
-534 60 -581 32 -22 39 -23 291 -26 l257 -3 0 -75 0 -74 -74 0 c-65 0 -79 -3
-103 -24 -36 -31 -39 -95 -5 -128 22 -22 29 -23 257 -26 229 -3 234 -3 245 18
24 45 6 49 -233 52 -202 3 -222 5 -225 21 -3 16 17 17 303 17 283 0 306 -1
303 -17 -2 -9 -14 -20 -27 -23 -65 -15 -44 -78 22 -66 43 8 66 33 74 79 5 31
1 40 -25 67 -28 28 -36 30 -101 30 l-71 0 0 74 0 74 253 4 c224 3 256 5 280
21 50 33 67 73 67 163 l0 82 30 5 c21 5 31 14 36 34 6 22 1 31 -29 57 l-37 31
0 349 c0 332 -1 350 -20 381 -41 67 -27 65 -647 63 l-558 -3 -3 -24 c-2 -13 2
-28 10 -32 7 -5 259 -9 559 -9 523 0 548 -1 570 -19 l24 -19 3 -316 c2 -174
-1 -316 -5 -316 -5 0 -25 11 -45 25 l-38 25 -2 188 -3 187 -269 3 c-209 2
-271 -1 -278 -10 -13 -22 -10 -412 4 -426 9 -9 74 -12 230 -12 l218 0 0 -50 0
-50 -615 0 -615 0 0 375 c0 437 -5 415 99 415 64 0 87 15 76 50 -6 18 -14 20
-73 19 -37 0 -76 -4 -87 -9z m1245 -497 c-1 -194 13 -183 -229 -183 l-191 0 0
160 0 160 210 0 210 0 0 -137z m106 -290 l66 -48 -41 -3 c-33 -3 -46 -10 -71
-40 l-30 -37 0 88 c0 48 2 87 5 87 3 0 35 -21 71 -47z m52 -199 c-3 -69 -6
-79 -31 -100 l-28 -24 -653 0 c-646 0 -654 0 -680 21 -24 19 -26 26 -26 95 l0
74 615 0 615 0 0 -45 c0 -35 5 -47 21 -55 29 -16 42 -8 89 54 26 37 48 56 61
56 20 0 21 -4 17 -76z m-608 -269 l0 -75 -100 0 -100 0 0 75 0 75 100 0 100 0
0 -75z"/>
<path d="M484 1615 c-4 -8 -4 -22 0 -30 5 -13 83 -15 625 -15 610 0 620 0 626
20 3 11 3 24 0 30 -4 7 -220 10 -626 10 -542 0 -620 -2 -625 -15z"/>
<path d="M484 1485 c-4 -8 -4 -22 0 -30 5 -13 50 -15 320 -15 270 0 315 2 320
15 3 8 3 22 0 30 -5 13 -50 15 -320 15 -270 0 -315 -2 -320 -15z"/>
<path d="M490 1365 c-6 -8 -10 -22 -8 -32 3 -17 24 -18 320 -21 l317 -2 7 22
c14 45 -7 48 -327 48 -247 0 -299 -2 -309 -15z"/>
<path d="M490 1235 c-6 -8 -10 -22 -8 -32 3 -17 24 -18 320 -21 l317 -2 7 22
c14 45 -7 48 -327 48 -247 0 -299 -2 -309 -15z"/>
<path d="M490 1105 c-6 -8 -10 -22 -8 -32 3 -17 24 -18 317 -21 245 -2 316 1
323 10 11 18 10 25 -8 42 -22 23 -605 24 -624 1z"/>
</g>
</svg>
