<svg id="picture-svgrepo-com" xmlns="http://www.w3.org/2000/svg" width="42.997" height="40.997" viewBox="0 0 42.997 42.997">
  <g id="Group_30" data-name="Group 30">
    <path id="Path_8" data-name="Path 8" d="M0,38.463A4.539,4.539,0,0,0,4.533,43h33.93A4.539,4.539,0,0,0,43,38.463V4.533A4.539,4.539,0,0,0,38.463,0H4.533A4.539,4.539,0,0,0,0,4.533Zm38.463,2.381H4.533a2.388,2.388,0,0,1-2.381-2.381V32.8l8.153-8.153,6.967,6.967a1.071,1.071,0,0,0,1.52,0L31.373,19.03,40.844,28.5v9.963A2.388,2.388,0,0,1,38.463,40.844ZM4.533,2.152h33.93a2.388,2.388,0,0,1,2.381,2.381V25.452l-8.715-8.707a1.071,1.071,0,0,0-1.52,0L18.028,29.326l-6.967-6.967a1.071,1.071,0,0,0-1.52,0L2.152,29.748V4.533A2.388,2.388,0,0,1,4.533,2.152Z" fill="#0278bd"/>
    <path id="Path_9" data-name="Path 9" d="M94.873,82.447A5.473,5.473,0,1,0,89.4,76.973,5.48,5.48,0,0,0,94.873,82.447Zm0-8.794a3.321,3.321,0,1,1-3.321,3.321A3.324,3.324,0,0,1,94.873,73.652Z" transform="translate(-81.546 -65.218)" fill="#ce094f"/>
  </g>
  <path id="Path_10" data-name="Path 10" d="M13.05,131.982l8.087-8.087,7.743,7.4,13.337-13.337,9.591,9.726v10.16a2.5,2.5,0,0,1-2.009,2.213c-1.807.241-34.909,0-34.909,0s-1.8-.663-1.84-2.192S13.05,131.982,13.05,131.982Z" transform="translate(-10.958 -99.169)" fill="#a5d6f2"/>
</svg>
