<svg id="Group_41" data-name="Group 41" xmlns="http://www.w3.org/2000/svg" width="27.18" height="27.167" viewBox="0 0 27.18 27.167">
  <path id="Path_20" data-name="Path 20" d="M15.19,12.72a6.555,6.555,0,0,0-1.272-3L15.4,8.244l-1.33-1.328L12.578,8.407A6.638,6.638,0,0,0,9.6,7.183V5.066H7.716V7.171A6.669,6.669,0,0,0,4.7,8.374L3.246,6.918l-1.33,1.33L3.347,9.679a6.493,6.493,0,0,0-1.3,3.039H.062V14.6H2.03a6.524,6.524,0,0,0,1.284,3.072l-1.4,1.4L3.244,20.4,4.654,18.99a6.65,6.65,0,0,0,3.06,1.241v2.026H9.6V20.219a6.665,6.665,0,0,0,3.029-1.261L14.067,20.4l1.33-1.33-1.442-1.444A6.51,6.51,0,0,0,15.2,14.6h2.047V12.722H15.19ZM8.634,17.109a3.446,3.446,0,1,1,3.449-3.447,3.444,3.444,0,0,1-3.449,3.447Z" transform="translate(-0.062 4.91)" fill="#fff" fill-rule="evenodd"/>
  <path id="Path_21" data-name="Path 21" d="M18.728,6.6l2.107-.543-.487-1.893-2.109.545a5.018,5.018,0,0,0-.891-1.3,4.832,4.832,0,0,0-1.251-.9L16.679.43,14.8-.094l-.578,2.072a4.874,4.874,0,0,0-3.028.739l-1.469-1.5L8.329,2.584,9.79,4.072a4.884,4.884,0,0,0-.853,3.045l-2.011.518.487,1.889,2.007-.518a4.56,4.56,0,0,0,2.225,2.248l-.559,2.009,1.877.524.566-2.026a4.881,4.881,0,0,0,3.022-.8l1.491,1.52,1.392-1.367-1.5-1.529A4.905,4.905,0,0,0,18.728,6.6ZM13.862,9.729a2.883,2.883,0,1,1,2.881-2.886,2.886,2.886,0,0,1-2.881,2.886Z" transform="translate(6.345 0.094)" fill="#fff" fill-rule="evenodd"/>
</svg>
