<?xml version="1.0" encoding="UTF-8"?>
<svg version="1.1" xmlns="http://www.w3.org/2000/svg" width="20" height="20">
<path d="M0 0 C0.598125 0.226875 1.19625 0.45375 1.8125 0.6875 C1.8125 1.3475 1.8125 2.0075 1.8125 2.6875 C2.8025 3.0175 3.7925 3.3475 4.8125 3.6875 C4.8125 4.6775 4.8125 5.6675 4.8125 6.6875 C4.235 6.3575 3.6575 6.0275 3.0625 5.6875 C0.61366138 4.41674102 0.61366138 4.41674102 -3.1875 4.6875 C-5.38817421 5.62033296 -5.38817421 5.62033296 -7.1875 6.6875 C-3.9375 -0.5625 -3.9375 -0.5625 0 0 Z " fill="#000000" transform="translate(13.1875,2.3125)"/>
<path d="M0 0 C1.1446875 0.495 1.1446875 0.495 2.3125 1 C5.45205002 2.16820466 7.11634276 2.4039576 10.1875 1 C10.785625 0.67 11.38375 0.34 12 0 C10.70700306 2.88437779 9.34058637 4.87219421 7 7 C4.13302508 5.71480435 2.02392288 4.42870746 0 2 C0 1.34 0 0.68 0 0 Z " fill="#000000" transform="translate(6,15)"/>
</svg>
