<svg xmlns="http://www.w3.org/2000/svg" width="22.409" height="25.032" viewBox="0 0 22.409 25.032">
  <path id="Path_16" data-name="Path 16" d="M27.706,10.189v3.491a16.79,16.79,0,0,1-2.879-.376,11.262,11.262,0,0,1-2.809-1.1s-.758-.476-.82-.51v9.2a8.915,8.915,0,0,1-.568,2.859,8.617,8.617,0,0,1-1.579,2.5,8.786,8.786,0,0,1-6.465,2.825A9.105,9.105,0,0,1,7.781,27.7l-.011-.008a8.073,8.073,0,0,1-1.962-2.969.013.013,0,0,1,0,0A8.666,8.666,0,0,1,5.3,21.742a7.933,7.933,0,0,1,1.04-3.768A8.955,8.955,0,0,1,8.36,15.611a8.513,8.513,0,0,1,2.4-1.361,8.344,8.344,0,0,1,2.977-.6v3.534a4.2,4.2,0,0,0-3.369.457,3.695,3.695,0,0,0-.119,6.239q.245.155.481.275a3.671,3.671,0,0,0,.88.819,3.985,3.985,0,0,0,3.977.364,3.649,3.649,0,0,0,2.052-2.161,5.039,5.039,0,0,0,.211-1.785V4.046h3.409a6.124,6.124,0,0,0,1.561,3.07,7.472,7.472,0,0,0,1.387,1.123,7.238,7.238,0,0,0,1.9,1.393A7.631,7.631,0,0,0,27.706,10.189Z" transform="translate(-5.297 -4.046)"/>
</svg>
