<svg xmlns="http://www.w3.org/2000/svg" width="43.181" height="40.913" viewBox="0 0 43.181 42.913">
  <g id="Group_34" data-name="Group 34" transform="translate(-2846 -4761)">
    <g id="Group_33" data-name="Group 33" transform="translate(2846 4761)">
      <g id="Group_31" data-name="Group 31" transform="translate(0 0)">
        <g id="picture-svgrepo-com">
          <g id="Group_30" data-name="Group 30">
            <path id="Path_8" data-name="Path 8" d="M0,38.389a4.544,4.544,0,0,0,4.553,4.525H38.628a4.544,4.544,0,0,0,4.553-4.525V4.525A4.544,4.544,0,0,0,38.628,0H4.553A4.544,4.544,0,0,0,0,4.525Zm38.628,2.376H4.553a2.391,2.391,0,0,1-2.391-2.376V32.733l15.185-1.184a1.08,1.08,0,0,0,1.526,0l22.146-3.1v9.944A2.391,2.391,0,0,1,38.628,40.765ZM4.553,2.148H38.628a2.391,2.391,0,0,1,2.391,2.376V25.4c-9.176-9.111-9.856-9.111-22.914,3.867-7.42-7.374-8.1-7.374-15.944.421V4.525A2.391,2.391,0,0,1,4.553,2.148Z" transform="translate(0)" fill="#0278bd"/>
          </g>
          <rect id="Rectangle_33" data-name="Rectangle 33" width="39.093" height="38.825" rx="3" transform="translate(2.047 2.047)" fill="#a5d6f2"/>
        </g>
      </g>
    </g>
    <path id="Polygon_2" data-name="Polygon 2" d="M6.457,0l6.457,11.181H0Z" transform="translate(2873.953 4775.095) rotate(90)" fill="#ce094f"/>
  </g>
</svg>
