<svg xmlns="http://www.w3.org/2000/svg" width="20.808" height="20.719" viewBox="0 0 23.808 16.719">
  <path id="youtube-svgrepo-com" d="M27.316,9A2.976,2.976,0,0,0,25.2,6.873a72.076,72.076,0,0,0-9.3-.491,72.077,72.077,0,0,0-9.3.491A2.976,2.976,0,0,0,4.491,9,31.648,31.648,0,0,0,4,14.744a31.872,31.872,0,0,0,.491,5.773A2.976,2.976,0,0,0,6.6,22.6a72.064,72.064,0,0,0,9.3.491,72.063,72.063,0,0,0,9.3-.491,2.976,2.976,0,0,0,2.113-2.083,31.871,31.871,0,0,0,.491-5.773A31.64,31.64,0,0,0,27.316,9ZM13.463,18.3V11.217L19.7,14.744l-6.234,3.541Z" transform="translate(-4 -6.377)" fill="#fff"/>
</svg>
